<svg width="12" height="12" viewBox="0 0 12 12" fill="none" xmlns="http://www.w3.org/2000/svg">
<path d="M6.5 2.5H4.95711C4.50435 2.5 4.07014 2.67986 3.75 3L3.71599 3.03401C3.41762 3.33238 3.01295 3.5 2.59099 3.5V3.5C1.71231 3.5 1 4.21231 1 5.09099L1 8.5C1 9.60457 1.89543 10.5 3 10.5H8C9.10457 10.5 10 9.60457 10 8.5V6M8.5 2.5H11.5M10 4V1M5.5 9C6.60457 9 7.5 8.10457 7.5 7C7.5 5.89543 6.60457 5 5.5 5C4.39543 5 3.5 5.89543 3.5 7C3.5 8.10457 4.39543 9 5.5 9Z" stroke="#1D1B20" stroke-linecap="round" stroke-linejoin="round"/>
</svg>
