<svg width="35" height="35" viewBox="0 0 35 35" fill="none" xmlns="http://www.w3.org/2000/svg">
<path d="M32.8125 17.5C32.8125 25.9525 25.9602 32.8125 17.5 32.8125C9.03984 32.8125 2.1875 25.9525 2.1875 17.5C2.1875 9.03984 9.03984 2.1875 17.5 2.1875C25.9602 2.1875 32.8125 9.03984 32.8125 17.5Z" fill="#283544"/>
<path d="M24.6773 13.6253C24.5937 13.674 22.6046 14.7027 22.6046 16.9836C22.6984 19.5848 25.1148 20.497 25.1563 20.497C25.1148 20.5458 24.7914 21.7397 23.8336 22.9912C23.0734 24.0693 22.2296 25.1562 20.9484 25.1562C19.7296 25.1562 19.2921 24.4377 17.8859 24.4377C16.3757 24.4377 15.9483 25.1562 14.7921 25.1562C13.5108 25.1562 12.6046 24.0111 11.803 22.9431C10.7615 21.5453 9.87632 19.3518 9.84507 17.2457C9.82401 16.1296 10.0536 15.0325 10.6365 14.1007C11.4592 12.7998 12.928 11.9167 14.5319 11.8875C15.7608 11.8489 16.8546 12.6738 17.6046 12.6738C18.3234 12.6738 19.6671 11.8875 21.1875 11.8875C21.8437 11.8882 23.5937 12.0724 24.6773 13.6253ZM17.5007 11.6647C17.2819 10.6455 17.8859 9.6263 18.4484 8.97616C19.1671 8.18991 20.3023 7.65625 21.2812 7.65625C21.3437 8.67546 20.9477 9.67504 20.2398 10.403C19.6046 11.1893 18.5109 11.7812 17.5007 11.6647Z" fill="#FDFDFD"/>
</svg>
