<svg width="25" height="24" viewBox="0 0 25 24" fill="none" xmlns="http://www.w3.org/2000/svg">
<path d="M11.1689 13.3857L11.248 13.585L11.4473 13.6641L16.2861 15.5996L11.4473 17.5361L11.248 17.6152L11.1689 17.8145L9.23242 22.6533L7.29688 17.8145L7.21777 17.6152L7.01855 17.5361L2.17871 15.5996L7.01855 13.6641L7.21777 13.585L7.29688 13.3857L9.23242 8.5459L11.1689 13.3857ZM19.5664 4.97363L19.6465 5.18652L19.8594 5.2666L23.4092 6.59961L19.8594 7.93164L19.6465 8.01172L19.5664 8.22461L18.2324 11.7754L16.9014 8.22461L16.8213 8.01172L16.6084 7.93164L13.0566 6.59961L16.6084 5.2666L16.8213 5.18652L16.9014 4.97363L18.2324 1.42285L19.5664 4.97363Z" fill="#1D1B20" stroke="#1D1B20"/>
</svg>
