<svg width="18" height="18" viewBox="0 0 18 18" fill="none" xmlns="http://www.w3.org/2000/svg">
<path d="M12.75 6.74951V5.24951C12.75 4.25495 12.3549 3.30112 11.6516 2.59786C10.9484 1.8946 9.99456 1.49951 9 1.49951C8.00544 1.49951 7.05161 1.8946 6.34835 2.59786C5.64509 3.30112 5.25 4.25495 5.25 5.24951V6.74951C4.65326 6.74951 4.08097 6.98656 3.65901 7.40852C3.23705 7.83048 3 8.40277 3 8.99951V14.2495C3 14.8462 3.23705 15.4185 3.65901 15.8405C4.08097 16.2625 4.65326 16.4995 5.25 16.4995H12.75C13.3467 16.4995 13.919 16.2625 14.341 15.8405C14.7629 15.4185 15 14.8462 15 14.2495V8.99951C15 8.40277 14.7629 7.83048 14.341 7.40852C13.919 6.98656 13.3467 6.74951 12.75 6.74951ZM6.75 5.24951C6.75 4.65277 6.98705 4.08048 7.40901 3.65852C7.83097 3.23656 8.40326 2.99951 9 2.99951C9.59674 2.99951 10.169 3.23656 10.591 3.65852C11.0129 4.08048 11.25 4.65277 11.25 5.24951V6.74951H6.75V5.24951ZM13.5 14.2495C13.5 14.4484 13.421 14.6392 13.2803 14.7798C13.1397 14.9205 12.9489 14.9995 12.75 14.9995H5.25C5.05109 14.9995 4.86032 14.9205 4.71967 14.7798C4.57902 14.6392 4.5 14.4484 4.5 14.2495V8.99951C4.5 8.8006 4.57902 8.60983 4.71967 8.46918C4.86032 8.32853 5.05109 8.24951 5.25 8.24951H12.75C12.9489 8.24951 13.1397 8.32853 13.2803 8.46918C13.421 8.60983 13.5 8.8006 13.5 8.99951V14.2495Z" fill="#1D1B20"/>
</svg>
