<svg width="24" height="24" viewBox="0 0 24 24" fill="none" xmlns="http://www.w3.org/2000/svg">
<path d="M22.7 14.299L21.7 15.299L19.7 13.299L20.7 12.299C20.8 12.199 20.9 12.099 21.1 12.099C21.2 12.099 21.4 12.199 21.5 12.299L22.8 13.599C22.9 13.799 22.9 14.099 22.7 14.299ZM13 19.899V21.999H15.1L21.2 15.899L19.2 13.899L13 19.899ZM11.21 15.829L9.25 13.469L6.5 16.999H13.12L15.66 14.549L13.96 12.289L11.21 15.829ZM11 19.899V19.049L11.05 18.999H5V4.99902H19V11.309L21 9.37902V4.99902C21 3.89902 20.11 2.99902 19 2.99902H5C3.9 2.99902 3 3.89902 3 4.99902V18.999C3 20.109 3.9 20.999 5 20.999H11V19.899Z" fill="#1D1B20"/>
</svg>
