<svg width="18" height="18" viewBox="0 0 18 18" fill="none" xmlns="http://www.w3.org/2000/svg">
<path d="M5.25 1.5C4.05653 1.5 2.91193 1.97411 2.06802 2.81802C1.22411 3.66193 0.75 4.80653 0.75 6C0.75 7.19347 1.22411 8.33807 2.06802 9.18198C2.91193 10.0259 4.05653 10.5 5.25 10.5C6.44347 10.5 7.58807 10.0259 8.43198 9.18198C9.27589 8.33807 9.75 7.19347 9.75 6C9.75 4.80653 9.27589 3.66193 8.43198 2.81802C7.58807 1.97411 6.44347 1.5 5.25 1.5ZM16.125 4.5C15.8266 4.5 15.5405 4.61853 15.3295 4.8295C15.1185 5.04048 15 5.32663 15 5.625C15 5.92337 15.1185 6.20952 15.3295 6.42049C15.5405 6.63147 15.8266 6.75 16.125 6.75C16.4234 6.75 16.7095 6.63147 16.9205 6.42049C17.1315 6.20952 17.25 5.92337 17.25 5.625C17.25 5.32663 17.1315 5.04048 16.9205 4.8295C16.7095 4.61853 16.4234 4.5 16.125 4.5ZM12.75 6C12.1533 6 11.581 6.23705 11.159 6.65901C10.7371 7.08097 10.5 7.65326 10.5 8.25C10.5 8.84674 10.7371 9.41903 11.159 9.84099C11.581 10.2629 12.1533 10.5 12.75 10.5C13.3467 10.5 13.919 10.2629 14.341 9.84099C14.7629 9.41903 15 8.84674 15 8.25C15 7.65326 14.7629 7.08097 14.341 6.65901C13.919 6.23705 13.3467 6 12.75 6ZM12.75 11.25C12.0538 11.25 11.3861 11.5266 10.8938 12.0188C10.4016 12.5111 10.125 13.1788 10.125 13.875C10.125 14.5712 10.4016 15.2389 10.8938 15.7312C11.3861 16.2234 12.0538 16.5 12.75 16.5C13.4462 16.5 14.1139 16.2234 14.6062 15.7312C15.0984 15.2389 15.375 14.5712 15.375 13.875C15.375 13.1788 15.0984 12.5111 14.6062 12.0188C14.1139 11.5266 13.4462 11.25 12.75 11.25Z" fill="#1D1B20"/>
</svg>
