<svg width="18" height="18" viewBox="0 0 18 18" fill="none" xmlns="http://www.w3.org/2000/svg">
<path d="M17.175 15.899L14.1 12.824C14.4 12.074 14.25 11.099 13.575 10.499C12.9 9.82402 11.925 9.67402 11.1 10.049L12.525 11.474L11.475 12.524L9.975 11.024C9.6 11.849 9.75 12.824 10.425 13.574C11.1 14.249 12 14.399 12.75 14.099L15.825 17.174C15.975 17.324 16.2 17.324 16.275 17.174L17.025 16.424C17.25 16.199 17.25 15.974 17.175 15.899ZM4.5 5.99902C4.5 4.34902 5.85 2.99902 7.5 2.99902C9.15 2.99902 10.5 4.34902 10.5 5.99902C10.5 7.64902 9.15 8.99902 7.5 8.99902C5.85 8.99902 4.5 7.64902 4.5 5.99902ZM9.75 14.999H1.5V13.499C1.5 11.849 4.2 10.499 7.5 10.499C7.875 10.499 8.175 10.499 8.55 10.574C8.325 11.024 8.25 11.474 8.25 11.999C8.25 13.199 8.85 14.324 9.75 14.999Z" fill="#1D1B20"/>
</svg>
