<svg width="18" height="19" viewBox="0 0 18 19" fill="none" xmlns="http://www.w3.org/2000/svg">
<path d="M3.3085 14.5165C2.97836 14.5165 2.70293 14.4061 2.4822 14.1854C2.26147 13.9647 2.15087 13.689 2.15039 13.3584V5.64151C2.15039 5.31137 2.26099 5.03594 2.4822 4.81521C2.70341 4.59448 2.9786 4.48388 3.30778 4.4834H13.8927C14.2224 4.4834 14.4976 4.594 14.7183 4.81521C14.939 5.03641 15.0496 5.31185 15.0501 5.64151V13.3591C15.0501 13.6888 14.9395 13.9642 14.7183 14.1854C14.4971 14.4066 14.2219 14.517 13.8927 14.5165H3.3085ZM8.60025 9.58308L2.86704 5.83429V13.3591C2.86704 13.4876 2.90837 13.5932 2.99102 13.6759C3.07368 13.7585 3.1795 13.7999 3.3085 13.7999H13.8927C14.0212 13.7999 14.1268 13.7585 14.2095 13.6759C14.2921 13.5932 14.3335 13.4874 14.3335 13.3584V5.83357L8.60025 9.58308ZM8.60025 8.7833L14.1127 5.20005H3.08777L8.60025 8.7833ZM2.86704 5.83429V5.20005V13.3591C2.86704 13.4876 2.90837 13.5932 2.99102 13.6759C3.07368 13.7585 3.1795 13.7999 3.3085 13.7999H2.86704V5.83429Z" fill="#999999"/>
</svg>
