<svg width="29" height="28" viewBox="0 0 29 28" fill="none" xmlns="http://www.w3.org/2000/svg">
<path d="M14.5 5.83326L13.6751 5.00843L14.5 4.18359L15.3248 5.00843L14.5 5.83326ZM15.6666 16.3333C15.6666 16.6427 15.5437 16.9394 15.3249 17.1582C15.1061 17.377 14.8094 17.4999 14.5 17.4999C14.1905 17.4999 13.8938 17.377 13.675 17.1582C13.4562 16.9394 13.3333 16.6427 13.3333 16.3333H15.6666ZM7.8418 10.8418L13.6751 5.00843L15.3248 6.65809L9.49146 12.4914L7.8418 10.8418ZM15.3248 5.00843L21.1581 10.8418L19.5085 12.4914L13.6751 6.65809L15.3248 5.00843ZM15.6666 5.83326V16.3333H13.3333V5.83326H15.6666Z" fill="white"/>
<path d="M6.33301 18.667V19.8337C6.33301 20.4525 6.57884 21.046 7.01643 21.4836C7.45401 21.9212 8.0475 22.167 8.66634 22.167H20.333C20.9518 22.167 21.5453 21.9212 21.9829 21.4836C22.4205 21.046 22.6663 20.4525 22.6663 19.8337V18.667" stroke="white" stroke-width="2"/>
</svg>
