<svg width="36" height="35" viewBox="0 0 36 35" fill="none" xmlns="http://www.w3.org/2000/svg">
<path d="M33.3154 17.8401C33.3154 16.5811 33.2112 15.6624 32.9856 14.7096H18.3154V20.3922H26.9265C26.7529 21.8044 25.8154 23.9311 23.7321 25.3602L23.7028 25.5504L28.3413 29.0719L28.6626 29.1033C31.614 26.4321 33.3154 22.5019 33.3154 17.8401" fill="#4285F4"/>
<path d="M18.3138 32.8125C22.5325 32.8125 26.0741 31.4513 28.661 29.1034L23.7304 25.3602C22.411 26.262 20.6401 26.8915 18.3138 26.8915C14.1819 26.8915 10.675 24.2204 9.42487 20.5283L9.24163 20.5436L4.41854 24.2016L4.35547 24.3734C6.92488 29.3755 12.2026 32.8125 18.3138 32.8125Z" fill="#34A853"/>
<path d="M9.42647 20.5284C9.09661 19.5756 8.90571 18.5547 8.90571 17.4999C8.90571 16.445 9.09661 15.4242 9.40911 14.4714L9.40037 14.2685L4.51684 10.5518L4.35705 10.6262C3.29807 12.702 2.69043 15.0329 2.69043 17.4999C2.69043 19.9669 3.29807 22.2977 4.35705 24.3735L9.42647 20.5284" fill="#FBBC05"/>
<path d="M18.3139 8.10829C21.2479 8.10829 23.227 9.3503 24.3555 10.3882L28.7652 6.16875C26.057 3.70174 22.5326 2.1875 18.3139 2.1875C12.2027 2.1875 6.92489 5.62428 4.35547 10.6263L9.40754 14.4715C10.675 10.7795 14.1819 8.10829 18.3139 8.10829" fill="#EB4335"/>
</svg>
