<svg width="24" height="24" viewBox="0 0 24 24" fill="none" xmlns="http://www.w3.org/2000/svg">
<path d="M10.4668 0.861221C11.47 0.583687 12.53 0.583702 13.5332 0.861221C14.1388 1.02875 14.6869 1.32476 15.292 1.74013C15.8893 2.15012 16.5828 2.70556 17.4658 3.412L19.4658 5.01259C20.5357 5.86847 21.185 6.37957 21.6553 7.02821C22.0595 7.58586 22.361 8.21186 22.544 8.87587C22.7567 9.64828 22.75 10.4747 22.75 11.8446V16.9999C22.75 20.1755 20.1757 22.7499 17 22.7499C15.4813 22.7499 14.25 21.5187 14.25 19.9999V15.9999C14.2499 14.7573 13.2426 13.7499 12 13.7499C10.7575 13.7499 9.75013 14.7574 9.75002 15.9999V19.9999C9.75002 21.5187 8.51881 22.7499 7.00002 22.7499C3.82441 22.7499 1.25002 20.1755 1.25002 16.9999V11.8446C1.25002 10.4747 1.24331 9.64828 1.45608 8.87587C1.63903 8.21185 1.94051 7.58587 2.34475 7.02821C2.81503 6.37955 3.46433 5.86849 4.5342 5.01259L6.5342 3.412C7.41728 2.70554 8.11071 2.15013 8.70803 1.74013C9.31321 1.32474 9.86127 1.02876 10.4668 0.861221ZM13.1328 2.30653C12.3916 2.10158 11.6084 2.10156 10.8672 2.30653C10.4838 2.4126 10.0905 2.61007 9.55666 2.97645C9.01507 3.34821 8.37094 3.86371 7.47073 4.58388L5.47073 6.18349C4.33575 7.09147 3.88195 7.46308 3.55862 7.90907C3.26001 8.32112 3.03754 8.78371 2.90237 9.27431C2.7561 9.80536 2.75003 10.3914 2.75002 11.8446V16.9999C2.75002 19.3471 4.65283 21.2499 7.00002 21.2499C7.69038 21.2499 8.25002 20.6902 8.25002 19.9999V15.9999C8.25013 13.9289 9.92904 12.2499 12 12.2499C14.071 12.2499 15.7499 13.9289 15.75 15.9999V19.9999C15.75 20.6902 16.3097 21.2499 17 21.2499C19.3472 21.2499 21.25 19.3471 21.25 16.9999V11.8446C21.25 10.3914 21.244 9.80536 21.0977 9.27431C20.9625 8.78372 20.74 8.32112 20.4414 7.90907C20.1181 7.4631 19.6643 7.09144 18.5293 6.18349L16.5293 4.58388C15.6291 3.86373 14.985 3.3482 14.4434 2.97645C13.9096 2.61009 13.5162 2.4126 13.1328 2.30653Z" fill="#999999"/>
</svg>
