<svg width="24" height="29" viewBox="0 0 24 29" fill="none" xmlns="http://www.w3.org/2000/svg">
<g clip-path="url(#clip0_588_4362)">
<path d="M13.4766 28.2701C17.8008 28.2701 20.4609 26.7349 20.4609 24.0865V18.3677C22.3008 16.7622 23.3672 14.1841 23.3672 11.3599C23.3672 4.76221 19.0547 0.355957 12.6445 0.355957C6.25781 0.355957 1.98047 4.65674 1.98047 11.1138C1.98047 11.4771 1.99219 11.7818 2.02734 12.0865L0.597656 14.6646C0.1875 15.3677 0 16.0591 0 16.6919C0 17.899 0.738281 18.8951 1.99219 19.2232V21.4732C1.99219 23.5826 3.49219 24.6372 5.40234 24.4263L7.93359 24.1685L6.59766 22.7271V24.0865C6.59766 26.7232 9.21094 28.2701 13.4766 28.2701ZM13.4766 26.3833C10.3125 26.3833 8.39062 25.3755 8.39062 23.7583V22.4224C8.39062 22.2583 8.30859 22.1998 8.16797 22.2115L5.15625 22.5513C4.33594 22.6333 3.87891 22.2701 3.87891 21.3326V17.8287C3.87891 17.7232 3.80859 17.6529 3.65625 17.6529H3.11719C2.35547 17.6529 1.91016 17.2662 1.91016 16.6685C1.91016 16.3521 2.01562 15.9771 2.22656 15.6021L3.97266 12.4615C3.90234 12.0044 3.86719 11.5474 3.86719 11.0787C3.86719 5.78174 7.37109 2.24268 12.6445 2.24268C17.9414 2.24268 21.4805 5.87549 21.4805 11.3599C21.4805 13.9849 20.3789 16.2818 18.5625 17.4419L18.5742 23.7583C18.5742 25.3755 16.6523 26.3833 13.4766 26.3833Z" fill="#1D1B20"/>
<path d="M5.58984 9.32079C5.58984 11.3599 7.00781 12.731 9.11719 12.731C11.1914 12.7427 12.5859 11.5005 12.5859 9.67236C12.5859 8.91064 12.3164 8.25439 11.8359 7.85595C11.625 7.68017 11.4727 7.59814 11.2734 7.59814C10.957 7.59814 10.7344 7.82079 10.7344 8.10204C10.7344 8.43017 10.9336 8.54736 11.1445 8.75829C11.3672 8.96923 11.4844 9.27392 11.4844 9.64892C11.4844 10.8443 10.5586 11.6177 9.12891 11.6177C7.67578 11.6177 6.70312 10.7154 6.70312 9.30907C6.70312 8.46533 7.16016 7.69189 7.88672 7.27001L7.33594 6.28564C6.28125 6.89501 5.58984 8.07861 5.58984 9.32079ZM7.06641 6.48486C7.06641 7.79736 7.99219 8.68798 9.35156 8.68798C9.65625 8.68798 9.91406 8.43017 9.91406 8.12548C9.91406 7.82079 9.65625 7.5747 9.35156 7.5747C8.64844 7.5747 8.17969 7.14111 8.17969 6.48486C8.17969 5.78173 8.75391 5.27783 9.55078 5.27783C9.97266 5.27783 10.418 5.43017 10.793 5.72314L11.4375 4.80907C10.8984 4.39892 10.2422 4.16454 9.55078 4.16454C8.13281 4.16454 7.06641 5.14892 7.06641 6.48486ZM9.96094 6.33251C9.94922 6.67236 10.1719 6.93017 10.5 6.93017C10.8281 6.93017 11.0508 6.69579 11.0625 6.36767C11.1094 5.39501 11.8125 4.69189 12.7969 4.69189C13.3711 4.69189 13.8867 4.99657 14.0977 5.47704C14.1797 5.64111 14.3438 5.64111 14.6016 5.57079C14.7188 5.53564 14.8594 5.53564 15.0234 5.53564C16.0078 5.53564 16.7695 6.29736 16.7695 7.31689C16.7695 9.80126 13.1484 9.36767 13.1484 12.0279C13.1484 13.2232 14.0977 14.0669 15.4688 14.0669C15.5625 14.0669 15.6562 14.0669 15.7734 14.0669C15.9492 15.1568 16.6523 15.8833 17.5195 15.8833C18.7852 15.8833 19.6641 14.4654 19.6641 12.4732C19.6641 11.7115 19.6172 11.1958 19.5703 10.7037L18.4453 11.0318C18.4805 11.5005 18.5508 11.9107 18.5508 12.4615C18.5508 13.7505 18.082 14.7701 17.5195 14.7701C17.0391 14.7701 16.6992 14.1607 16.6992 13.2818C16.6992 13.1294 16.5938 13.0591 16.4531 13.0591C16.2891 13.0591 16.0898 13.0708 15.9492 13.0708C14.8359 13.0708 14.2617 12.7076 14.2617 12.0162C14.2617 10.0942 17.8945 10.6333 17.8945 7.31689C17.8945 5.66454 16.6875 4.41064 15.1289 4.41064C15 4.41064 14.8711 4.42236 14.7422 4.44579C14.2617 3.90673 13.5586 3.57861 12.7969 3.57861C11.1914 3.57861 10.0195 4.71533 9.96094 6.33251ZM16.3828 11.6646C16.3828 11.9693 16.6055 12.1919 16.9219 12.2271C18.8438 12.3443 20.168 11.1958 20.168 9.36767C20.168 7.80907 19.0195 6.62548 17.3438 6.47314L17.1797 7.60986C18.293 7.53954 19.0547 8.25439 19.0547 9.36767C19.0547 10.5044 18.2227 11.2076 16.9453 11.1138C16.6406 11.0904 16.3828 11.3599 16.3828 11.6646ZM13.7461 12.2622C13.418 12.3912 12.9961 12.4615 12.6094 12.4615C11.625 12.4615 10.6875 12.0513 10.4414 11.4771L9.51562 12.2388C10.125 13.0591 11.2617 13.5748 12.5273 13.5748C13.043 13.5748 13.6055 13.481 14.1094 13.3169L13.7461 12.2622ZM11.7656 8.45361L12.1289 9.52001C13.5586 9.28564 14.332 8.40673 14.332 6.97704C14.332 6.68407 14.0742 6.42626 13.7695 6.42626C13.4648 6.42626 13.2188 6.67236 13.2188 6.97704C13.2188 7.91454 12.7852 8.34814 11.7656 8.45361Z" fill="#1D1B20"/>
</g>
<defs>
<clipPath id="clip0_588_4362">
<rect width="23.3672" height="27.9961" fill="white" transform="translate(0 0.355957)"/>
</clipPath>
</defs>
</svg>
