<svg width="25" height="24" viewBox="0 0 25 24" fill="none" xmlns="http://www.w3.org/2000/svg">
<path d="M20.667 0C22.3238 0 23.667 1.34315 23.667 3V21C23.667 22.6569 22.3238 24 20.667 24H5.66699C4.01014 24 2.66699 22.6569 2.66699 21V3C2.66699 1.34315 4.01014 7.24787e-08 5.66699 0H20.667ZM16.8418 9C16.7389 9.00001 16.637 9.01982 16.542 9.05762C16.4469 9.09543 16.3608 9.15088 16.2881 9.2207L12.1465 13.1904L10.3525 11.4707C10.2799 11.401 10.1936 11.3454 10.0986 11.3076C10.0037 11.2699 9.90159 11.2501 9.79883 11.25C9.69607 11.25 9.59398 11.27 9.49902 11.3076C9.40395 11.3454 9.3169 11.401 9.24414 11.4707C9.17151 11.5404 9.11355 11.6229 9.07422 11.7139C9.03489 11.8049 9.0147 11.9025 9.01465 12.001C9.01465 12.0996 9.03484 12.198 9.07422 12.2891C9.11357 12.38 9.1715 12.4626 9.24414 12.5322L11.5918 14.7822C11.6645 14.8521 11.7516 14.9075 11.8467 14.9453C11.9417 14.983 12.0437 15.0029 12.1465 15.0029C12.2493 15.0029 12.3513 14.9831 12.4463 14.9453C12.5413 14.9075 12.6275 14.852 12.7002 14.7822L17.3955 10.2822C17.4684 10.2126 17.527 10.1301 17.5664 10.0391C17.6059 9.94794 17.626 9.84963 17.626 9.75098C17.6259 9.65248 17.6058 9.55485 17.5664 9.46387C17.527 9.37275 17.4684 9.29037 17.3955 9.2207C17.3228 9.15089 17.2367 9.09542 17.1416 9.05762C17.0465 9.01983 16.9447 9 16.8418 9Z" fill="#1D1B20"/>
<path d="M2.23221 7.5V6.75C2.23221 6.55109 2.31466 6.36032 2.46143 6.21967C2.6082 6.07902 2.80726 6 3.01482 6C3.22238 6 3.42144 6.07902 3.56821 6.21967C3.71497 6.36032 3.79743 6.55109 3.79743 6.75V7.5H4.58004C4.7876 7.5 4.98666 7.57902 5.13342 7.71967C5.28019 7.86032 5.36264 8.05109 5.36264 8.25C5.36264 8.44891 5.28019 8.63968 5.13342 8.78033C4.98666 8.92098 4.7876 9 4.58004 9H1.4496C1.24204 9 1.04298 8.92098 0.896213 8.78033C0.749445 8.63968 0.666992 8.44891 0.666992 8.25C0.666992 8.05109 0.749445 7.86032 0.896213 7.71967C1.04298 7.57902 1.24204 7.5 1.4496 7.5H2.23221ZM2.23221 12V11.25C2.23221 11.0511 2.31466 10.8603 2.46143 10.7197C2.6082 10.579 2.80726 10.5 3.01482 10.5C3.22238 10.5 3.42144 10.579 3.56821 10.7197C3.71497 10.8603 3.79743 11.0511 3.79743 11.25V12H4.58004C4.7876 12 4.98666 12.079 5.13342 12.2197C5.28019 12.3603 5.36264 12.5511 5.36264 12.75C5.36264 12.9489 5.28019 13.1397 5.13342 13.2803C4.98666 13.421 4.7876 13.5 4.58004 13.5H1.4496C1.24204 13.5 1.04298 13.421 0.896213 13.2803C0.749445 13.1397 0.666992 12.9489 0.666992 12.75C0.666992 12.5511 0.749445 12.3603 0.896213 12.2197C1.04298 12.079 1.24204 12 1.4496 12H2.23221ZM2.23221 16.5V15.75C2.23221 15.5511 2.31466 15.3603 2.46143 15.2197C2.6082 15.079 2.80726 15 3.01482 15C3.22238 15 3.42144 15.079 3.56821 15.2197C3.71497 15.3603 3.79743 15.5511 3.79743 15.75V16.5H4.58004C4.7876 16.5 4.98666 16.579 5.13342 16.7197C5.28019 16.8603 5.36264 17.0511 5.36264 17.25C5.36264 17.4489 5.28019 17.6397 5.13342 17.7803C4.98666 17.921 4.7876 18 4.58004 18H1.4496C1.24204 18 1.04298 17.921 0.896213 17.7803C0.749445 17.6397 0.666992 17.4489 0.666992 17.25C0.666992 17.0511 0.749445 16.8603 0.896213 16.7197C1.04298 16.579 1.24204 16.5 1.4496 16.5H2.23221Z" fill="#1D1B20"/>
</svg>
