<svg width="25" height="24" viewBox="0 0 25 24" fill="none" xmlns="http://www.w3.org/2000/svg">
<g clip-path="url(#clip0_489_3118)">
<path fill-rule="evenodd" clip-rule="evenodd" d="M16.948 9.21912C17.0178 9.28879 17.0732 9.37155 17.111 9.46267C17.1488 9.55379 17.1683 9.65147 17.1683 9.75012C17.1683 9.84877 17.1488 9.94645 17.111 10.0376C17.0732 10.1287 17.0178 10.2115 16.948 10.2811L12.448 14.7811C12.3783 14.851 12.2955 14.9064 12.2044 14.9442C12.1133 14.982 12.0156 15.0015 11.917 15.0015C11.8183 15.0015 11.7206 14.982 11.6295 14.9442C11.5384 14.9064 11.4556 14.851 11.386 14.7811L9.13596 12.5311C9.06623 12.4614 9.01092 12.3786 8.97318 12.2875C8.93544 12.1964 8.91602 12.0987 8.91602 12.0001C8.91602 11.9015 8.93544 11.8039 8.97318 11.7127C9.01092 11.6216 9.06623 11.5389 9.13596 11.4691C9.2057 11.3994 9.28848 11.3441 9.37959 11.3063C9.4707 11.2686 9.56835 11.2492 9.66696 11.2492C9.76558 11.2492 9.86323 11.2686 9.95434 11.3063C10.0454 11.3441 10.1282 11.3994 10.198 11.4691L11.917 13.1896L15.886 9.21912C15.9556 9.14927 16.0384 9.09386 16.1295 9.05605C16.2206 9.01824 16.3183 8.99878 16.417 8.99878C16.5156 8.99878 16.6133 9.01824 16.7044 9.05605C16.7955 9.09386 16.8783 9.14927 16.948 9.21912Z" fill="#999999"/>
<path d="M5.16699 0H20.167C20.9626 0 21.7257 0.316071 22.2883 0.87868C22.8509 1.44129 23.167 2.20435 23.167 3V21C23.167 21.7956 22.8509 22.5587 22.2883 23.1213C21.7257 23.6839 20.9626 24 20.167 24H5.16699C4.37134 24 3.60828 23.6839 3.04567 23.1213C2.48306 22.5587 2.16699 21.7956 2.16699 21V19.5H3.66699V21C3.66699 21.3978 3.82503 21.7794 4.10633 22.0607C4.38764 22.342 4.76917 22.5 5.16699 22.5H20.167C20.5648 22.5 20.9463 22.342 21.2277 22.0607C21.509 21.7794 21.667 21.3978 21.667 21V3C21.667 2.60218 21.509 2.22064 21.2277 1.93934C20.9463 1.65804 20.5648 1.5 20.167 1.5H5.16699C4.76917 1.5 4.38764 1.65804 4.10633 1.93934C3.82503 2.22064 3.66699 2.60218 3.66699 3V4.5H2.16699V3C2.16699 2.20435 2.48306 1.44129 3.04567 0.87868C3.60828 0.316071 4.37134 0 5.16699 0V0Z" fill="#999999"/>
<path d="M2.16699 7.5V6.75C2.16699 6.55109 2.24601 6.36032 2.38666 6.21967C2.52731 6.07902 2.71808 6 2.91699 6C3.1159 6 3.30667 6.07902 3.44732 6.21967C3.58797 6.36032 3.66699 6.55109 3.66699 6.75V7.5H4.41699C4.6159 7.5 4.80667 7.57902 4.94732 7.71967C5.08797 7.86032 5.16699 8.05109 5.16699 8.25C5.16699 8.44891 5.08797 8.63968 4.94732 8.78033C4.80667 8.92098 4.6159 9 4.41699 9H1.41699C1.21808 9 1.02731 8.92098 0.886662 8.78033C0.74601 8.63968 0.666992 8.44891 0.666992 8.25C0.666992 8.05109 0.74601 7.86032 0.886662 7.71967C1.02731 7.57902 1.21808 7.5 1.41699 7.5H2.16699ZM2.16699 12V11.25C2.16699 11.0511 2.24601 10.8603 2.38666 10.7197C2.52731 10.579 2.71808 10.5 2.91699 10.5C3.1159 10.5 3.30667 10.579 3.44732 10.7197C3.58797 10.8603 3.66699 11.0511 3.66699 11.25V12H4.41699C4.6159 12 4.80667 12.079 4.94732 12.2197C5.08797 12.3603 5.16699 12.5511 5.16699 12.75C5.16699 12.9489 5.08797 13.1397 4.94732 13.2803C4.80667 13.421 4.6159 13.5 4.41699 13.5H1.41699C1.21808 13.5 1.02731 13.421 0.886662 13.2803C0.74601 13.1397 0.666992 12.9489 0.666992 12.75C0.666992 12.5511 0.74601 12.3603 0.886662 12.2197C1.02731 12.079 1.21808 12 1.41699 12H2.16699ZM2.16699 16.5V15.75C2.16699 15.5511 2.24601 15.3603 2.38666 15.2197C2.52731 15.079 2.71808 15 2.91699 15C3.1159 15 3.30667 15.079 3.44732 15.2197C3.58797 15.3603 3.66699 15.5511 3.66699 15.75V16.5H4.41699C4.6159 16.5 4.80667 16.579 4.94732 16.7197C5.08797 16.8603 5.16699 17.0511 5.16699 17.25C5.16699 17.4489 5.08797 17.6397 4.94732 17.7803C4.80667 17.921 4.6159 18 4.41699 18H1.41699C1.21808 18 1.02731 17.921 0.886662 17.7803C0.74601 17.6397 0.666992 17.4489 0.666992 17.25C0.666992 17.0511 0.74601 16.8603 0.886662 16.7197C1.02731 16.579 1.21808 16.5 1.41699 16.5H2.16699Z" fill="#999999"/>
</g>
<defs>
<clipPath id="clip0_489_3118">
<rect width="24" height="24" fill="white" transform="translate(0.666992)"/>
</clipPath>
</defs>
</svg>
