<svg width="37" height="32" viewBox="0 0 37 32" fill="none" xmlns="http://www.w3.org/2000/svg">
<rect width="37" height="32" rx="5" fill="#EAEAEA"/>
<path d="M28 15.0984C28.0028 14.4629 27.8196 13.838 27.4689 13.287C27.1182 12.736 26.6126 12.2785 26.0031 11.9608C26.0182 11.8048 26.0182 11.6479 26.0031 11.4919C26.0031 10.7746 25.6876 10.0866 25.1259 9.57933C24.5641 9.07207 23.8023 8.7871 23.0079 8.7871H22.8282C22.6619 8.37083 22.3851 7.99776 22.022 7.7006C21.6589 7.40345 21.2206 7.19127 20.7456 7.08269C20.2705 6.97411 19.7732 6.97244 19.2973 7.07782C18.8214 7.1832 18.3814 7.39242 18.0158 7.68713C17.6503 7.39242 17.2103 7.1832 16.7343 7.07782C16.2584 6.97244 15.7611 6.97411 15.2861 7.08269C14.811 7.19127 14.3727 7.40345 14.0096 7.7006C13.6465 7.99776 13.3697 8.37083 13.2035 8.7871H13.0237C12.2294 8.7871 11.4675 9.07207 10.9058 9.57933C10.3441 10.0866 10.0285 10.7746 10.0285 11.4919C10.0135 11.6479 10.0135 11.8048 10.0285 11.9608C9.46186 12.25 8.98209 12.6599 8.63096 13.1548C8.27983 13.6498 8.06797 14.2147 8.01384 14.8004C7.9597 15.3862 8.06493 15.975 8.32035 16.5156C8.57578 17.0563 8.97367 17.5323 9.47937 17.9024C9.15216 18.4535 8.98927 19.072 9.00667 19.6972C9.02407 20.3223 9.22118 20.9326 9.57864 21.4682C9.9361 22.0038 10.4416 22.4462 11.0456 22.7521C11.6496 23.058 12.3313 23.2168 13.0237 23.2129H13.2035C13.3697 23.6292 13.6465 24.0022 14.0096 24.2994C14.3727 24.5966 14.811 24.8087 15.2861 24.9173C15.7611 25.0259 16.2584 25.0276 16.7343 24.9222C17.2103 24.8168 17.6503 24.6076 18.0158 24.3129C18.3814 24.6076 18.8214 24.8168 19.2973 24.9222C19.7732 25.0276 20.2705 25.0259 20.7456 24.9173C21.2206 24.8087 21.6589 24.5966 22.022 24.2994C22.3851 24.0022 22.6619 23.6292 22.8282 23.2129H23.0079C23.6961 23.209 24.3716 23.0445 24.9687 22.7354C25.5658 22.4263 26.0643 21.9832 26.4159 21.4489C26.7675 20.9145 26.9602 20.3073 26.9753 19.6859C26.9905 19.0645 26.8276 18.4502 26.5023 17.9024C26.968 17.5657 27.3443 17.1391 27.6035 16.6538C27.8626 16.1686 27.9981 15.6371 28 15.0984ZM17.0174 12.8894C16.8 12.7771 16.5729 12.6806 16.3385 12.6009C16.0869 12.5244 15.812 12.5413 15.5742 12.6478C15.3364 12.7543 15.1552 12.9418 15.0705 13.1689C14.9858 13.3961 15.0044 13.6444 15.1224 13.8591C15.2403 14.0738 15.4479 14.2375 15.6995 14.314C16.0838 14.4395 16.4163 14.6684 16.652 14.9699C16.8876 15.2714 17.0152 15.631 17.0174 16V17.3975C16.8 17.2852 16.5729 17.1887 16.3385 17.109C16.0869 17.0325 15.812 17.0493 15.5742 17.1558C15.3364 17.2624 15.1552 17.4498 15.0705 17.677C14.9858 17.9042 15.0044 18.1524 15.1224 18.3672C15.2403 18.5819 15.4479 18.7455 15.6995 18.822C16.0838 18.9475 16.4163 19.1765 16.652 19.478C16.8876 19.7795 17.0152 20.139 17.0174 20.5081V22.3113C17.0174 22.5504 16.9122 22.7797 16.725 22.9488C16.5377 23.1179 16.2838 23.2129 16.019 23.2129C15.8258 23.2118 15.6372 23.1601 15.4759 23.064C15.3147 22.968 15.1877 22.8318 15.1104 22.6719C15.2778 22.5832 15.438 22.4838 15.5897 22.3744C15.6906 22.2986 15.7741 22.2056 15.8352 22.1007C15.8964 21.9958 15.9341 21.8811 15.9461 21.763C15.9582 21.645 15.9444 21.526 15.9055 21.4127C15.8666 21.2995 15.8034 21.1943 15.7195 21.1031C15.6356 21.012 15.5326 20.9366 15.4164 20.8814C15.3003 20.8261 15.1732 20.7921 15.0425 20.7812C14.9117 20.7703 14.7799 20.7828 14.6545 20.8179C14.5292 20.8531 14.4127 20.9101 14.3117 20.9859C13.9512 21.26 13.495 21.4101 13.0237 21.4097C12.4942 21.4097 11.9863 21.2197 11.6118 20.8815C11.2373 20.5434 11.0269 20.0847 11.0269 19.6065C11.0317 19.2671 11.1424 18.9358 11.3464 18.6507C11.5705 18.687 11.7977 18.7051 12.0253 18.7048C12.2901 18.7048 12.5441 18.6098 12.7313 18.4408C12.9186 18.2717 13.0237 18.0423 13.0237 17.8032C13.0237 17.5641 12.9186 17.3348 12.7313 17.1657C12.5441 16.9966 12.2901 16.9016 12.0253 16.9016C11.7895 16.9028 11.5556 16.863 11.3364 16.7844C10.9773 16.6675 10.6629 16.46 10.4304 16.1866C10.1978 15.9133 10.0569 15.5854 10.0243 15.242C9.99177 14.8985 10.0689 14.5538 10.2466 14.2487C10.4243 13.9437 10.6951 13.6909 11.0269 13.5206C11.1688 13.6384 11.3225 13.7441 11.4862 13.8361C11.7166 13.9557 11.9901 13.9877 12.2466 13.9252C12.5031 13.8626 12.7216 13.7106 12.854 13.5025C12.9864 13.2945 13.0219 13.0475 12.9526 12.8158C12.8833 12.5842 12.715 12.3869 12.4846 12.2673C12.3441 12.1973 12.2268 12.0946 12.1451 11.9698C12.0528 11.825 12.0111 11.6585 12.0253 11.4919C12.0253 11.2528 12.1305 11.0235 12.3178 10.8544C12.505 10.6853 12.759 10.5903 13.0237 10.5903C13.0933 10.5816 13.1639 10.5816 13.2334 10.5903C13.2863 10.7352 13.3496 10.8767 13.4231 11.0141C13.4883 11.1174 13.5756 11.208 13.6797 11.2808C13.7839 11.3535 13.903 11.4069 14.0301 11.4379C14.1573 11.469 14.29 11.4769 14.4205 11.4615C14.5511 11.446 14.677 11.4073 14.7909 11.3477C15.0123 11.2274 15.1734 11.0343 15.2404 10.809C15.3075 10.5838 15.2752 10.3438 15.1504 10.1395C15.0666 10.0012 15.022 9.84634 15.0206 9.68871C15.0206 9.44959 15.1258 9.22026 15.313 9.05117C15.5002 8.88209 15.7542 8.7871 16.019 8.7871C16.2838 8.7871 16.5377 8.88209 16.725 9.05117C16.9122 9.22026 17.0174 9.44959 17.0174 9.68871V12.8894ZM24.6952 16.7844C24.476 16.863 24.2421 16.9028 24.0063 16.9016C23.7415 16.9016 23.4876 16.9966 23.3003 17.1657C23.1131 17.3348 23.0079 17.5641 23.0079 17.8032C23.0079 18.0423 23.1131 18.2717 23.3003 18.4408C23.4876 18.6098 23.7415 18.7048 24.0063 18.7048C24.234 18.7051 24.4612 18.687 24.6852 18.6507C24.8892 18.9358 24.9999 19.2671 25.0047 19.6065C25.0047 20.0847 24.7943 20.5434 24.4199 20.8815C24.0454 21.2197 23.5375 21.4097 23.0079 21.4097C22.5367 21.4101 22.0804 21.26 21.7199 20.9859C21.516 20.8329 21.2532 20.7593 20.9892 20.7812C20.7252 20.8032 20.4816 20.919 20.3122 21.1031C20.1427 21.2873 20.0612 21.5246 20.0855 21.763C20.1099 22.0015 20.2381 22.2214 20.442 22.3744C20.5936 22.4838 20.7538 22.5832 20.9212 22.6719C20.8439 22.8318 20.717 22.968 20.5557 23.064C20.3945 23.1601 20.2058 23.2118 20.0127 23.2129C19.7479 23.2129 19.4939 23.1179 19.3067 22.9488C19.1194 22.7797 19.0142 22.5504 19.0142 22.3113V20.5081C19.0165 20.139 19.144 19.7795 19.3797 19.478C19.6154 19.1765 19.9478 18.9475 20.3321 18.822C20.5837 18.7455 20.7913 18.5819 20.9093 18.3672C21.0272 18.1524 21.0459 17.9042 20.9611 17.677C20.8764 17.4498 20.6952 17.2624 20.4574 17.1558C20.2196 17.0493 19.9447 17.0325 19.6932 17.109C19.4587 17.1887 19.2317 17.2852 19.0142 17.3975V16C19.0165 15.631 19.144 15.2714 19.3797 14.9699C19.6154 14.6684 19.9478 14.4395 20.3321 14.314C20.5837 14.2375 20.7913 14.0738 20.9093 13.8591C21.0272 13.6444 21.0459 13.3961 20.9611 13.1689C20.8764 12.9418 20.6952 12.7543 20.4574 12.6478C20.2196 12.5413 19.9447 12.5244 19.6932 12.6009C19.4587 12.6806 19.2317 12.7771 19.0142 12.8894V9.68871C19.0142 9.44959 19.1194 9.22026 19.3067 9.05117C19.4939 8.88209 19.7479 8.7871 20.0127 8.7871C20.2774 8.7871 20.5314 8.88209 20.7186 9.05117C20.9059 9.22026 21.0111 9.44959 21.0111 9.68871C21.0096 9.84634 20.965 10.0012 20.8813 10.1395C20.8148 10.2419 20.7714 10.3551 20.7536 10.4726C20.7357 10.5902 20.7437 10.7097 20.777 10.8245C20.8104 10.9393 20.8686 11.0469 20.9481 11.1413C21.0277 11.2358 21.1271 11.3151 21.2407 11.3747C21.3547 11.4343 21.4805 11.473 21.6111 11.4885C21.7417 11.504 21.8744 11.496 22.0015 11.465C22.1286 11.434 22.2477 11.3806 22.3519 11.3078C22.4561 11.2351 22.5433 11.1444 22.6085 11.0411C22.6833 10.895 22.7466 10.7444 22.7982 10.5903C22.8678 10.5816 22.9383 10.5816 23.0079 10.5903C23.2727 10.5903 23.5266 10.6853 23.7139 10.8544C23.9011 11.0235 24.0063 11.2528 24.0063 11.4919C24.0048 11.6687 23.9458 11.8411 23.8366 11.9878C23.7549 12.1048 23.6415 12.201 23.5071 12.2673C23.2767 12.3869 23.1084 12.5842 23.0391 12.8158C22.9698 13.0475 23.0053 13.2945 23.1377 13.5025C23.2701 13.7106 23.4886 13.8626 23.7451 13.9252C24.0016 13.9877 24.2751 13.9557 24.5055 13.8361C24.6848 13.7486 24.8523 13.6427 25.0047 13.5206C25.3377 13.6879 25.6107 13.9379 25.7914 14.2408C25.9722 14.5438 26.0532 14.8871 26.0248 15.2303C25.9965 15.5734 25.86 15.9021 25.6315 16.1775C25.403 16.4529 25.0919 16.6635 24.7352 16.7844H24.6952Z" fill="#1D1B20"/>
</svg>
