<svg width="32" height="32" viewBox="0 0 32 32" fill="none" xmlns="http://www.w3.org/2000/svg">
<rect x="0.25" y="0.25" width="31.5" height="31.5" rx="15.75" stroke="#999999" stroke-width="0.5"/>
<path d="M22.0354 19.355C21.1326 18.2501 20.4952 17.6876 20.4952 14.6413C20.4952 11.8516 19.0707 10.8578 17.8982 10.3751C17.7425 10.3111 17.5959 10.1641 17.5484 10.0042C17.3428 9.3042 16.7662 8.68756 15.9998 8.68756C15.2334 8.68756 14.6565 9.30455 14.4529 10.0049C14.4055 10.1666 14.2589 10.3111 14.1031 10.3751C12.9293 10.8585 11.5061 11.8488 11.5061 14.6413C11.5044 17.6876 10.867 18.2501 9.96418 19.355C9.59012 19.8128 9.91778 20.5001 10.572 20.5001H21.4311C22.0818 20.5001 22.4074 19.8106 22.0354 19.355Z" stroke="#999999" stroke-linecap="round" stroke-linejoin="round"/>
<path d="M18.25 20.5001V21.0626C18.25 21.6593 18.0129 22.2316 17.591 22.6536C17.169 23.0755 16.5967 23.3126 16 23.3126C15.4033 23.3126 14.831 23.0755 14.409 22.6536C13.9871 22.2316 13.75 21.6593 13.75 21.0626V20.5001" stroke="#999999" stroke-linecap="round" stroke-linejoin="round"/>
</svg>
