<svg width="28" height="28" viewBox="0 0 28 28" fill="none" xmlns="http://www.w3.org/2000/svg">
<g clip-path="url(#clip0_588_4368)">
<path d="M13.4279 21.7332H24.1754C24.625 21.7332 24.9997 21.3416 24.9997 20.8433C24.9997 20.3332 24.625 19.9417 24.1754 19.9417H13.4279C12.9783 19.9417 12.6143 20.3332 12.6143 20.8433C12.6143 21.3416 12.9783 21.7332 13.4279 21.7332Z" fill="#1D1B20"/>
<path d="M5.61374 25.9565C8.12936 25.9565 10.2275 23.6314 10.2275 20.8433C10.2275 18.0317 8.12936 15.7184 5.61374 15.7184C3.08743 15.7184 1 18.0435 1 20.8433C1 23.6314 3.09813 25.9565 5.61374 25.9565ZM5.61374 24.2245C3.95451 24.2245 2.56289 22.6703 2.56289 20.8433C2.56289 19.0045 3.96521 17.4504 5.61374 17.4504C7.26228 17.4504 8.66459 19.0045 8.66459 20.8433C8.66459 22.6703 7.26228 24.2245 5.61374 24.2245Z" fill="#1D1B20"/>
<path d="M13.4279 8.01885H24.1754C24.625 8.01885 24.9997 7.62735 24.9997 7.11722C24.9997 6.61895 24.625 6.22745 24.1754 6.22745H13.4279C12.9783 6.22745 12.6143 6.61895 12.6143 7.11722C12.6143 7.62735 12.9783 8.01885 13.4279 8.01885Z" fill="#1D1B20"/>
<path d="M5.61374 12.2185C8.12936 12.2185 10.2275 9.90513 10.2275 7.1172C10.2275 4.31739 8.12936 1.99213 5.61374 1.99213C3.08743 1.99213 1 4.31739 1 7.1172C1 9.90513 3.09813 12.2185 5.61374 12.2185ZM5.0678 9.85768C4.843 9.85768 4.69314 9.72718 4.53257 9.5255L3.33364 7.92392C3.22659 7.79341 3.19447 7.65106 3.19447 7.46124C3.19447 7.1172 3.42998 6.84433 3.719 6.84433C3.9224 6.84433 4.07226 6.93925 4.21142 7.14092L5.0464 8.31542L6.95183 4.92243C7.08029 4.70889 7.24086 4.59025 7.43355 4.59025C7.73328 4.59025 7.99019 4.85126 7.99019 5.14784C7.99019 5.31393 7.94738 5.45629 7.85104 5.63424L5.61374 9.5255C5.496 9.73905 5.30331 9.85768 5.0678 9.85768Z" fill="#1D1B20"/>
</g>
<defs>
<clipPath id="clip0_588_4368">
<rect width="24" height="24" fill="white" transform="translate(1 1.95654)"/>
</clipPath>
</defs>
</svg>
