<svg width="37" height="37" viewBox="0 0 37 37" fill="none" xmlns="http://www.w3.org/2000/svg">
<circle cx="18.5" cy="18.5" r="18.5" fill="#EAEAEA"/>
<g clip-path="url(#clip0_470_2729)">
<path d="M26.7504 10.6667H10.679C10.1859 10.6667 9.78613 11.0398 9.78613 11.5V26.5C9.78613 26.9603 10.1859 27.3334 10.679 27.3334H26.7504C27.2435 27.3334 27.6433 26.9603 27.6433 26.5V11.5C27.6433 11.0398 27.2435 10.6667 26.7504 10.6667Z" stroke="#1D1B20" stroke-width="1.5" stroke-linecap="round" stroke-linejoin="round"/>
<path d="M9.78613 14.8333H27.6433" stroke="#1D1B20" stroke-width="1.5" stroke-linecap="round" stroke-linejoin="round"/>
<path d="M27.6426 13.5833V18.5833" stroke="#1D1B20" stroke-width="1.5" stroke-linecap="round" stroke-linejoin="round"/>
<path d="M13.3574 18.1667H15.1431" stroke="#1D1B20" stroke-width="1.5" stroke-linecap="round" stroke-linejoin="round"/>
<path d="M17.8213 18.1667H19.607" stroke="#1D1B20" stroke-width="1.5" stroke-linecap="round" stroke-linejoin="round"/>
<path d="M22.2861 18.1667H24.0718" stroke="#1D1B20" stroke-width="1.5" stroke-linecap="round" stroke-linejoin="round"/>
<path d="M13.3574 21.0833H15.1431" stroke="#1D1B20" stroke-width="1.5" stroke-linecap="round" stroke-linejoin="round"/>
<path d="M17.8213 21.0833H19.607" stroke="#1D1B20" stroke-width="1.5" stroke-linecap="round" stroke-linejoin="round"/>
<path d="M22.2861 21.0833H24.0718" stroke="#1D1B20" stroke-width="1.5" stroke-linecap="round" stroke-linejoin="round"/>
<path d="M13.3574 24H15.1431" stroke="#1D1B20" stroke-width="1.5" stroke-linecap="round" stroke-linejoin="round"/>
<path d="M17.8213 24H19.607" stroke="#1D1B20" stroke-width="1.5" stroke-linecap="round" stroke-linejoin="round"/>
<path d="M22.2861 24H24.0718" stroke="#1D1B20" stroke-width="1.5" stroke-linecap="round" stroke-linejoin="round"/>
<path d="M9.78613 13.5833V18.5833" stroke="#1D1B20" stroke-width="1.5" stroke-linecap="round" stroke-linejoin="round"/>
</g>
<defs>
<clipPath id="clip0_470_2729">
<rect width="21.4286" height="20" fill="white" transform="translate(8 9)"/>
</clipPath>
</defs>
</svg>
