<svg width="16" height="16" viewBox="0 0 16 16" fill="none" xmlns="http://www.w3.org/2000/svg">
<path d="M1.6931 3.13996L2.16643 2.66663L13.3331 13.8333L12.8598 14.3066L10.6331 12.0733C9.71977 12.4533 8.71977 12.6666 7.66643 12.6666C4.62643 12.6666 1.99977 10.9 0.759766 8.33329C1.40643 6.99996 2.41977 5.88663 3.66643 5.11996L1.6931 3.13996ZM7.66643 12C8.52643 12 9.3531 11.8466 10.1131 11.56L9.36643 10.8066C8.87977 11.14 8.29977 11.3333 7.66643 11.3333C5.99977 11.3333 4.66643 9.99996 4.66643 8.33329C4.66643 7.69996 4.85977 7.11996 5.1931 6.63329L4.15977 5.60663C3.04353 6.25694 2.12608 7.19975 1.50643 8.33329C2.6931 10.52 4.99977 12 7.66643 12ZM13.8264 8.33329C12.6398 6.14663 10.3331 4.66663 7.66643 4.66663C6.89977 4.66663 6.1531 4.79329 5.45977 5.01996L4.93977 4.49996C5.78643 4.17329 6.70643 3.99996 7.66643 3.99996C10.7064 3.99996 13.3331 5.76663 14.5731 8.33329C13.9673 9.59051 13.0289 10.6579 11.8598 11.42L11.3798 10.9333C12.3998 10.2933 13.2464 9.39996 13.8264 8.33329ZM7.66643 5.33329C9.3331 5.33329 10.6664 6.66663 10.6664 8.33329C10.6664 8.87996 10.5198 9.38663 10.2664 9.82663L9.7731 9.33329C9.91977 9.02663 9.99977 8.69329 9.99977 8.33329C9.99977 7.71445 9.75393 7.12096 9.31635 6.68338C8.87876 6.24579 8.28527 5.99996 7.66643 5.99996C7.30643 5.99996 6.9731 6.07996 6.66643 6.22663L6.1731 5.73329C6.6131 5.47996 7.11977 5.33329 7.66643 5.33329ZM5.3331 8.33329C5.3331 8.95213 5.57893 9.54562 6.01652 9.98321C6.4541 10.4208 7.04759 10.6666 7.66643 10.6666C8.1131 10.6666 8.52643 10.54 8.87977 10.3333L5.66643 7.11996C5.45977 7.47329 5.3331 7.88663 5.3331 8.33329Z" fill="#999999"/>
</svg>
