<svg width="24" height="24" viewBox="0 0 24 24" fill="none" xmlns="http://www.w3.org/2000/svg">
<g clip-path="url(#clip0_489_3206)">
<path d="M12 13.5C12.8284 13.5 13.5 12.8284 13.5 12C13.5 11.1716 12.8284 10.5 12 10.5C11.1716 10.5 10.5 11.1716 10.5 12C10.5 12.8284 11.1716 13.5 12 13.5Z" fill="#1D1B20"/>
<path d="M21.8903 10.32L21.1003 7.8C21.015 7.50876 20.8719 7.23767 20.6796 7.00292C20.4872 6.76817 20.2496 6.57456 19.9808 6.43364C19.712 6.29272 19.4176 6.20737 19.1152 6.1827C18.8127 6.15802 18.5083 6.19451 18.2203 6.29L17.8803 6.4C17.6139 6.48805 17.3302 6.51039 17.0534 6.46511C16.7765 6.41984 16.5147 6.3083 16.2903 6.14L16.1803 6.06C15.9613 5.89237 15.7847 5.67562 15.6649 5.42723C15.545 5.17884 15.4852 4.90575 15.4903 4.63V4.35C15.4951 3.72202 15.2506 3.11779 14.8103 2.67C14.6009 2.45845 14.3517 2.29036 14.0771 2.17538C13.8025 2.0604 13.508 2.0008 13.2103 2H10.6603C10.0485 2.00791 9.46453 2.25719 9.03563 2.69358C8.60673 3.12997 8.36759 3.71813 8.37028 4.33V4.57C8.36932 4.86027 8.30323 5.14663 8.17689 5.40796C8.05055 5.6693 7.86717 5.89895 7.64028 6.08L7.51028 6.18C7.25962 6.36962 6.96645 6.49516 6.65624 6.5457C6.34602 6.59624 6.02816 6.57025 5.73028 6.47C5.45669 6.37533 5.16674 6.33715 4.87798 6.35777C4.58921 6.3784 4.30763 6.4574 4.05028 6.59C3.78233 6.72299 3.54462 6.90969 3.35194 7.1385C3.15926 7.36731 3.01573 7.63333 2.93028 7.92L2.11028 10.52C1.92012 11.1062 1.96889 11.7437 2.24599 12.2942C2.52309 12.8447 3.00615 13.2636 3.59028 13.46H3.75028C4.01974 13.561 4.26158 13.7241 4.45619 13.9361C4.65079 14.148 4.79266 14.4029 4.87028 14.68L4.93028 14.84C5.04176 15.1461 5.07903 15.4743 5.03905 15.7977C4.99907 16.121 4.88297 16.4302 4.70028 16.7C4.3305 17.2036 4.17452 17.8328 4.26628 18.4508C4.35805 19.0688 4.69012 19.6256 5.19028 20L7.26028 21.57C7.65223 21.855 8.12571 22.0058 8.61028 22C8.73997 22.0127 8.87059 22.0127 9.00028 22C9.30038 21.9419 9.5855 21.8233 9.83824 21.6514C10.091 21.4794 10.306 21.2578 10.4703 21L10.7003 20.67C10.8616 20.4386 11.0751 20.2483 11.3235 20.1145C11.5719 19.9808 11.8483 19.9073 12.1303 19.9C12.4258 19.8927 12.7184 19.9604 12.9807 20.0968C13.243 20.2332 13.4665 20.4339 13.6303 20.68L13.7503 20.85C13.9208 21.1037 14.1414 21.3199 14.3986 21.4852C14.6558 21.6504 14.9441 21.7613 15.2457 21.8109C15.5474 21.8606 15.856 21.848 16.1526 21.7739C16.4492 21.6997 16.7274 21.5657 16.9703 21.38L19.0003 19.86C19.4802 19.4872 19.7994 18.945 19.8924 18.3444C19.9854 17.7438 19.8451 17.1304 19.5003 16.63L19.2403 16.25C19.0839 16.0084 18.9816 15.736 18.9401 15.4512C18.8987 15.1664 18.9192 14.8761 19.0003 14.6C19.0829 14.3044 19.2362 14.0334 19.4471 13.8104C19.6579 13.5874 19.9198 13.4191 20.2103 13.32L20.4103 13.25C20.989 13.0492 21.4669 12.6312 21.7431 12.0845C22.0193 11.5377 22.0721 10.905 21.8903 10.32ZM12.0003 15.5C11.308 15.5 10.6314 15.2947 10.0558 14.9101C9.48021 14.5256 9.03161 13.9789 8.7667 13.3394C8.50179 12.6999 8.43248 11.9961 8.56753 11.3172C8.70258 10.6383 9.03592 10.0146 9.52541 9.52513C10.0149 9.03564 10.6385 8.7023 11.3175 8.56725C11.9964 8.4322 12.7001 8.50151 13.3397 8.76642C13.9792 9.03133 14.5258 9.47993 14.9104 10.0555C15.295 10.6311 15.5003 11.3078 15.5003 12C15.5003 12.9283 15.1315 13.8185 14.4752 14.4749C13.8188 15.1313 12.9285 15.5 12.0003 15.5Z" fill="#1D1B20"/>
</g>
<defs>
<clipPath id="clip0_489_3206">
<rect width="24" height="24" fill="white"/>
</clipPath>
</defs>
</svg>
