<svg width="37" height="37" viewBox="0 0 37 37" fill="none" xmlns="http://www.w3.org/2000/svg">
<circle cx="18.5" cy="18.5" r="18.5" fill="#EAEAEA"/>
<path d="M11.6098 9L10.5538 10.0545L12.125 11.625L13.1795 10.5705L11.6098 9ZM25.391 9L23.8198 10.5705L24.875 11.625L26.4455 10.0553L25.391 9ZM18.5 9.468C18.2525 9.47 18.0025 9.486 17.75 9.516H17.7275C14.6855 9.86475 12.2645 12.3225 11.8438 15.351C11.5077 17.7885 12.5127 19.9987 14.1875 21.4222C14.8725 22.007 15.3358 22.8092 15.5 23.6948V28.1948H17.21C17.471 28.6425 17.9473 28.9448 18.5 28.9448C19.0527 28.9448 19.529 28.6425 19.79 28.1948H21.5V25.1948H21.5705V24.3038C21.5705 23.2043 22.142 22.0958 23.0705 21.234C24.3125 19.9905 25.25 18.2242 25.25 16.1955C25.25 12.4905 22.2005 9.4335 18.5 9.468ZM18.5 10.968C21.3988 10.9275 23.75 13.3005 23.75 16.1955C23.75 17.766 23.0225 19.149 22.0153 20.1555L22.0392 20.1795C21.0387 21.1028 20.3915 22.3463 20.2092 23.6955H16.9287C16.7637 22.41 16.2125 21.1658 15.1707 20.2733C13.8455 19.1483 13.0558 17.4532 13.3198 15.5392C13.6475 13.1767 15.5645 11.277 17.9135 11.0167C18.1075 10.9899 18.3028 10.9738 18.4985 10.9688L18.5 10.968ZM8 16.1955V17.6955H10.25V16.1955H8ZM26.75 16.1955V17.6955H29V16.1955H26.75ZM12.125 22.266L10.5545 23.8358L11.6098 24.891L13.1787 23.3205L12.125 22.266ZM24.875 22.266L23.8205 23.3205L25.3903 24.891L26.4455 23.8358L24.875 22.266ZM17 25.1955H20V26.6955H17V25.1955Z" fill="#1D1B20"/>
</svg>
