<svg width="106" height="106" viewBox="0 0 106 106" fill="none" xmlns="http://www.w3.org/2000/svg">
<circle cx="53" cy="53" r="53" fill="#047CFE"/>
<g clip-path="url(#clip0_588_4524)">
<path d="M58.254 37.6354C58.5514 37.5958 58.7695 37.6751 59.0669 37.7742C60.1772 38.1509 60.7125 39.3405 60.3755 40.4508C60.0384 41.5413 58.3928 46.4781 58.3928 47.5487C58.3928 48.5995 59.8798 49.5313 61.0694 49.5313H67.0173C68.2069 49.5313 69 50.3244 69 51.514C69 52.7036 65.0347 65.3926 65.0347 65.3926C64.6976 66.1658 63.9442 67.3752 63.052 67.3752H44.9306V49.5313H49.1735C49.9864 48.7185 55.7162 40.193 56.2714 39.0828C56.6877 38.2699 57.461 37.7346 58.254 37.6354V37.6354ZM37 49.5313H40.9653V67.3752H37V49.5313Z" fill="#FDFDFD"/>
</g>
<defs>
<clipPath id="clip0_588_4524">
<rect width="46" height="46" fill="white" transform="translate(30 30)"/>
</clipPath>
</defs>
</svg>
