<svg width="18" height="18" viewBox="0 0 18 18" fill="none" xmlns="http://www.w3.org/2000/svg">
<path d="M6 1.5H12C13.1935 1.5 14.3381 1.97411 15.182 2.81802C16.0259 3.66193 16.5 4.80653 16.5 6V12C16.5 13.1935 16.0259 14.3381 15.182 15.182C14.3381 16.0259 13.1935 16.5 12 16.5H6C4.80653 16.5 3.66193 16.0259 2.81802 15.182C1.97411 14.3381 1.5 13.1935 1.5 12L1.5 6C1.5 4.80653 1.97411 3.66193 2.81802 2.81802C3.66193 1.97411 4.80653 1.5 6 1.5V1.5ZM6 3C5.20435 3 4.44129 3.31607 3.87868 3.87868C3.31607 4.44129 3 5.20435 3 6V12C3 12.7956 3.31607 13.5587 3.87868 14.1213C4.44129 14.6839 5.20435 15 6 15H12C12.7956 15 13.5587 14.6839 14.1213 14.1213C14.6839 13.5587 15 12.7956 15 12V6C15 5.20435 14.6839 4.44129 14.1213 3.87868C13.5587 3.31607 12.7956 3 12 3H6ZM10.5 8.25H12.75C12.9489 8.25 13.1397 8.32902 13.2803 8.46967C13.421 8.61032 13.5 8.80109 13.5 9C13.5 9.19891 13.421 9.38968 13.2803 9.53033C13.1397 9.67098 12.9489 9.75 12.75 9.75H10.5C10.3011 9.75 10.1103 9.67098 9.96967 9.53033C9.82902 9.38968 9.75 9.19891 9.75 9C9.75 8.80109 9.82902 8.61032 9.96967 8.46967C10.1103 8.32902 10.3011 8.25 10.5 8.25ZM9 11.25H12.75C12.9489 11.25 13.1397 11.329 13.2803 11.4697C13.421 11.6103 13.5 11.8011 13.5 12C13.5 12.1989 13.421 12.3897 13.2803 12.5303C13.1397 12.671 12.9489 12.75 12.75 12.75H9C8.80109 12.75 8.61032 12.671 8.46967 12.5303C8.32902 12.3897 8.25 12.1989 8.25 12C8.25 11.8011 8.32902 11.6103 8.46967 11.4697C8.61032 11.329 8.80109 11.25 9 11.25ZM9 5.25H12.75C12.9489 5.25 13.1397 5.32902 13.2803 5.46967C13.421 5.61032 13.5 5.80109 13.5 6C13.5 6.19891 13.421 6.38968 13.2803 6.53033C13.1397 6.67098 12.9489 6.75 12.75 6.75H9C8.80109 6.75 8.61032 6.67098 8.46967 6.53033C8.32902 6.38968 8.25 6.19891 8.25 6C8.25 5.80109 8.32902 5.61032 8.46967 5.46967C8.61032 5.32902 8.80109 5.25 9 5.25ZM5.871 9.18225L7.4625 7.59C7.53218 7.52037 7.6149 7.46514 7.70592 7.42747C7.79695 7.38981 7.8945 7.37044 7.99301 7.37047C8.09153 7.37051 8.18907 7.38995 8.28007 7.42768C8.37106 7.46541 8.45374 7.52069 8.52337 7.59037C8.59301 7.66006 8.64823 7.74277 8.6859 7.8338C8.72357 7.92482 8.74294 8.02238 8.7429 8.12089C8.74287 8.2194 8.72343 8.31694 8.6857 8.40794C8.64797 8.49894 8.59268 8.58162 8.523 8.65125L6.402 10.7722C6.33234 10.842 6.24963 10.8973 6.15858 10.935C6.06753 10.9728 5.96994 10.9922 5.87137 10.9922C5.77281 10.9922 5.67522 10.9728 5.58417 10.935C5.49312 10.8973 5.4104 10.842 5.34075 10.7722L4.28025 9.7125C4.14363 9.57105 4.06804 9.3816 4.06974 9.18495C4.07145 8.9883 4.15033 8.80019 4.28939 8.66114C4.42844 8.52208 4.61655 8.4432 4.8132 8.44149C5.00985 8.43979 5.1993 8.51538 5.34075 8.652L5.871 9.18225Z" fill="#1D1B20"/>
</svg>
